# xmcd
#
# Track frame offsets:
#	150
#	14713
#	28679
#	44629
#	55771
#
# Disc length: 1043 seconds
#
# Revision: 0
# Processed by: cddbd v1.4PL0 Copyright (c) Steve Scherf et al.
# Submitted via: EasyCDDAExtractor 5.0.5.1
#
DISCID=40041105
DTITLE=C.P. Grun - We Love Paddy's
DYEAR=2000
DGENRE=Blues
TTITLE0=We Love Paddy's
TTITLE1=Come All Ye Lasses
TTITLE2=Rattling Roaring Willie/Kid On The Mountain/Kesh Jig
TTITLE3=Rockin' Home The Blues - Coolgrass version
TTITLE4=Cajun Boogie
EXTD=
EXTT0=
EXTT1=
EXTT2=
EXTT3=
EXTT4=
PLAYORDER=
